<svg xmlns="http://www.w3.org/2000/svg" viewBox="0 0 64 64">
  <defs>
    <linearGradient id="docX" x1="0" y1="0" x2="0" y2="1">
      <stop offset="0" stop-color="#FFFFFF"/>
      <stop offset="1" stop-color="#F3FAF6"/>
    </linearGradient>
    <linearGradient id="tileX" x1="0" y1="0" x2="1" y2="1">
      <stop offset="0" stop-color="#1F8A4D"/>
      <stop offset="1" stop-color="#107C41"/>
    </linearGradient>
  </defs>
  <path d="M18 4h24l14 14v40a4 4 0 0 1-4 4H18a4 4 0 0 1-4-4V8a4 4 0 0 1 4-4z" fill="url(#docX)" stroke="#D7E6DC"/>
  <path d="M42 4v10a4 4 0 0 0 4 4h10" fill="#EAF4EE"/>
  <g stroke="#9BC6AE" stroke-width="1.8">
    <line x1="34" y1="24" x2="50" y2="24"/>
    <line x1="34" y1="29" x2="50" y2="29"/>
    <line x1="34" y1="34" x2="50" y2="34"/>
    <line x1="34" y1="39" x2="50" y2="39"/>
    <line x1="39" y1="22" x2="39" y2="41"/>
    <line x1="44" y1="22" x2="44" y2="41"/>
  </g>
  <rect x="8" y="16" width="24" height="32" rx="3.2" fill="url(#tileX)"/>
  <text x="20" y="37.5" text-anchor="middle" font-family="Segoe UI, Arial" font-size="17" font-weight="700" fill="#FFFFFF">X</text>
</svg>