<svg xmlns="http://www.w3.org/2000/svg" viewBox="0 0 64 64">
  <defs>
    <linearGradient id="docW" x1="0" y1="0" x2="0" y2="1">
      <stop offset="0" stop-color="#FFFFFF"/>
      <stop offset="1" stop-color="#F3F6FB"/>
    </linearGradient>
    <linearGradient id="tileW" x1="0" y1="0" x2="1" y2="1">
      <stop offset="0" stop-color="#2B74DA"/>
      <stop offset="1" stop-color="#185ABD"/>
    </linearGradient>
  </defs>
  <path d="M18 4h24l14 14v40a4 4 0 0 1-4 4H18a4 4 0 0 1-4-4V8a4 4 0 0 1 4-4z" fill="url(#docW)" stroke="#D9E2EF"/>
  <path d="M42 4v10a4 4 0 0 0 4 4h10" fill="#EAF0FA"/>
  <rect x="34" y="24" width="15" height="2.3" rx="1.1" fill="#A6C0E9"/>
  <rect x="34" y="30" width="14" height="2.3" rx="1.1" fill="#B7CCED"/>
  <rect x="34" y="36" width="12" height="2.3" rx="1.1" fill="#CBDAF2"/>
  <rect x="34" y="42" width="10" height="2.3" rx="1.1" fill="#DCE6F7"/>
  <rect x="8" y="16" width="24" height="32" rx="3.2" fill="url(#tileW)"/>
  <text x="20" y="37.5" text-anchor="middle" font-family="Segoe UI, Arial" font-size="17" font-weight="700" fill="#FFFFFF">W</text>
</svg>