<svg xmlns="http://www.w3.org/2000/svg" viewBox="0 0 64 64">
  <defs>
    <linearGradient id="docP" x1="0" y1="0" x2="0" y2="1">
      <stop offset="0" stop-color="#FFFFFF"/>
      <stop offset="1" stop-color="#FDF5F2"/>
    </linearGradient>
    <linearGradient id="tileP" x1="0" y1="0" x2="1" y2="1">
      <stop offset="0" stop-color="#E06B49"/>
      <stop offset="1" stop-color="#D24726"/>
    </linearGradient>
  </defs>
  <path d="M18 4h24l14 14v40a4 4 0 0 1-4 4H18a4 4 0 0 1-4-4V8a4 4 0 0 1 4-4z" fill="url(#docP)" stroke="#ECD7CE"/>
  <path d="M42 4v10a4 4 0 0 0 4 4h10" fill="#F8ECE8"/>
  <circle cx="43" cy="31" r="8.5" fill="none" stroke="#E0A391" stroke-width="3"/>
  <path d="M43 31 L43 22.5 A8.5 8.5 0 0 1 51.5 31 Z" fill="#D24726" opacity="0.78"/>
  <rect x="8" y="16" width="24" height="32" rx="3.2" fill="url(#tileP)"/>
  <text x="20" y="37.5" text-anchor="middle" font-family="Segoe UI, Arial" font-size="17" font-weight="700" fill="#FFFFFF">P</text>
</svg>