<svg xmlns="http://www.w3.org/2000/svg" viewBox="0 0 64 64">
  <defs>
    <linearGradient id="docPdf" x1="0" y1="0" x2="0" y2="1">
      <stop offset="0" stop-color="#FFFFFF"/>
      <stop offset="1" stop-color="#FCF3F3"/>
    </linearGradient>
    <linearGradient id="tilePdf" x1="0" y1="0" x2="1" y2="1">
      <stop offset="0" stop-color="#F05C58"/>
      <stop offset="1" stop-color="#E53935"/>
    </linearGradient>
  </defs>
  <path d="M18 4h24l14 14v40a4 4 0 0 1-4 4H18a4 4 0 0 1-4-4V8a4 4 0 0 1 4-4z" fill="url(#docPdf)" stroke="#EDD5D5"/>
  <path d="M42 4v10a4 4 0 0 0 4 4h10" fill="#F9EAEA"/>
  <path d="M35 41c4-7.5 7-10 11.5-3.2-6.8-0.8-10.3 2.1-15.8 3 1.7-3.6 4.8-6.8 5.8-11.2-3.8 6.3-7.8 9.4-11.8 9.6 3.8 0.1 7.7-1.9 10.3-3.2z" fill="#F2AAAA"/>
  <rect x="8" y="16" width="24" height="32" rx="3.2" fill="url(#tilePdf)"/>
  <text x="20" y="37" text-anchor="middle" font-family="Segoe UI, Arial" font-size="10.5" font-weight="700" fill="#FFFFFF">PDF</text>
</svg>